<?xml version="1.0" encoding="UTF-8" standalone="no"?>
<!-- Created with Inkscape (http://www.inkscape.org/) -->

<svg
   xmlns:dc="http://purl.org/dc/elements/1.1/"
   xmlns:cc="http://creativecommons.org/ns#"
   xmlns:rdf="http://www.w3.org/1999/02/22-rdf-syntax-ns#"
   xmlns:svg="http://www.w3.org/2000/svg"
   xmlns="http://www.w3.org/2000/svg"
   xmlns:xlink="http://www.w3.org/1999/xlink"
   xmlns:sodipodi="http://sodipodi.sourceforge.net/DTD/sodipodi-0.dtd"
   xmlns:inkscape="http://www.inkscape.org/namespaces/inkscape"
   version="1.1"
   width="55mm"
   height="85mm"
   id="svg2"
   style="enable-background:new"
   sodipodi:docname="business-card_back.svg"
   inkscape:version="0.92.5 (2060ec1f9f, 2020-04-08)">
  <sodipodi:namedview
     pagecolor="#ffffff"
     bordercolor="#666666"
     borderopacity="1"
     objecttolerance="10"
     gridtolerance="10"
     guidetolerance="10"
     inkscape:pageopacity="0"
     inkscape:pageshadow="2"
     inkscape:window-width="1920"
     inkscape:window-height="991"
     id="namedview47"
     showgrid="true"
     inkscape:zoom="4"
     inkscape:cx="153.16489"
     inkscape:cy="173.72733"
     inkscape:window-x="1920"
     inkscape:window-y="0"
     inkscape:window-maximized="1"
     inkscape:current-layer="svg2"
     units="mm"
     inkscape:document-units="mm">
    <inkscape:grid
       type="xygrid"
       id="grid871"
       units="mm"
       spacingx="1.8897638"
       spacingy="1.8897638"
       dotted="false"
       empspacing="10" />
  </sodipodi:namedview>
  <defs
     id="defs4">
    <linearGradient
       inkscape:collect="always"
       id="linearGradient5143">
      <stop
         style="stop-color:#492475;stop-opacity:1"
         offset="0"
         id="stop5139" />
      <stop
         style="stop-color:#469ba0;stop-opacity:1"
         offset="1"
         id="stop5141" />
    </linearGradient>
    <filter
       id="filter4158"
       style="color-interpolation-filters:sRGB">
      <feBlend
         in2="BackgroundImage"
         mode="screen"
         id="feBlend4160" />
    </filter>
    <linearGradient
       inkscape:collect="always"
       xlink:href="#linearGradient5143"
       id="linearGradient5145"
       x1="45.119144"
       y1="110.125"
       x2="158.8387"
       y2="216.00174"
       gradientUnits="userSpaceOnUse" />
    <filter
       inkscape:collect="always"
       style="color-interpolation-filters:sRGB"
       id="filter5425"
       x="-0.015272768"
       width="1.0305455"
       y="-0.0098823357"
       height="1.0197647">
      <feGaussianBlur
         inkscape:collect="always"
         stdDeviation="1.3228321"
         id="feGaussianBlur5427" />
    </filter>
    <filter
       id="filter4158-0"
       color-interpolation-filters="sRGB">
      <feBlend
         id="feBlend4160-3"
         mode="screen"
         in2="BackgroundImage" />
    </filter>
  </defs>
  <metadata
     id="metadata7">
    <rdf:RDF>
      <cc:Work
         rdf:about="">
        <dc:format>image/svg+xml</dc:format>
        <dc:type
           rdf:resource="http://purl.org/dc/dcmitype/StillImage" />
        <dc:title></dc:title>
      </cc:Work>
    </rdf:RDF>
  </metadata>
  <rect
     style="fill:url(#linearGradient5145);fill-opacity:1;stroke:none;stroke-width:0.75590551;stroke-miterlimit:4;stroke-dasharray:none;stroke-opacity:1"
     id="rect5137"
     width="207.87305"
     height="321.25977"
     x="0"
     y="0" />
  <g
     transform="translate(-261.40645,-36.651723)"
     id="layer2"
     style="display:none;filter:url(#filter4158)">
    <path
       d="m 760,577.36218 a 205,205 0 1 1 -410,0 205,205 0 1 1 410,0 z"
       transform="matrix(1.3381995,0,0,1.3381995,-265.70563,-690.50502)"
       id="path3794"
       style="fill:none;stroke:#000000;stroke-width:1px;stroke-linecap:butt;stroke-linejoin:miter;stroke-opacity:1"
       inkscape:connector-curvature="0" />
    <path
       d="m 395.47747,706.11606 c 8.23995,10.20908 17.4409,19.60357 27.47626,28.05423 86.60273,72.92714 215.92724,61.84089 288.85438,-24.76184"
       transform="matrix(1.3381995,0,0,1.3381995,-251.93318,-651.74385)"
       id="path3794-98"
       style="display:inline;fill:none;stroke:none;filter:url(#filter4158);enable-background:new"
       inkscape:connector-curvature="0" />
  </g>
  <path
     inkscape:connector-curvature="0"
     style="fill:#ffffff;fill-opacity:1;stroke:none;stroke-width:0.75590551;stroke-miterlimit:4;stroke-dasharray:none;stroke-opacity:1;enable-background:new;filter:url(#filter5425)"
     d="M 4.8287402e-4,3.6759843e-5 V 321.25981 H 207.87353 V 3.6759843e-5 Z M 104.7661,45.197303 l 0.5586,6.408203 -0.92578,0.07031 c -0.4224,-1.871744 -1.13268,-3.175962 -2.13086,-3.912109 -0.97855,-0.759056 -2.448373,-1.094805 -4.410155,-1.007813 l 1.296875,16.814453 c 0.09343,1.212407 0.322588,1.964986 0.6875,2.257813 0.38618,0.291188 1.2733,0.437695 2.66406,0.4375 l 0.0625,0.796875 -11.390623,0.876953 -0.0625,-0.796875 c 1.353102,-0.211258 2.18817,-0.488704 2.503907,-0.833984 0.335367,-0.36819 0.457027,-1.148709 0.365234,-2.339844 L 92.689936,47.154334 c -1.973217,0.216253 -3.395614,0.77607 -4.267578,1.677734 -0.852333,0.878755 -1.343982,2.27509 -1.474609,4.189453 l -0.925782,0.07031 -0.398437,-6.419922 z m 22.03516,2.677734 c 1.12788,-0.04033 2.30147,0.08462 3.52344,0.375 3.13406,0.744756 5.48048,2.409566 7.03711,4.994141 1.57739,2.589507 1.98899,5.472867 1.23437,8.648437 -0.76448,3.217081 -2.43125,5.616899 -5,7.199219 -2.54799,1.587252 -5.43135,1.998859 -8.64843,1.234375 -3.21709,-0.764485 -5.61978,-2.420754 -7.20704,-4.96875 -1.56156,-2.56382 -1.95979,-5.454794 -1.19531,-8.671875 0.76942,-3.237836 2.43906,-5.648149 5.00781,-7.230469 1.61845,-0.985867 3.36825,-1.512858 5.24805,-1.580078 z m 1.92188,1.253906 c -1.28502,0.04411 -2.44413,0.643881 -3.47461,1.796875 -1.37398,1.537327 -2.45881,3.987241 -3.25782,7.34961 -0.74968,3.154814 -0.85582,5.672311 -0.3164,7.554687 0.56017,1.887308 1.73262,3.044585 3.51758,3.46875 1.78496,0.424166 3.34135,-0.083 4.66992,-1.521484 1.35425,-1.454305 2.41232,-3.780237 3.17187,-6.976563 0.76942,-3.237836 0.88803,-5.86316 0.35742,-7.875 -0.50489,-2.027663 -1.6191,-3.244928 -3.34179,-3.654297 -0.45662,-0.108507 -0.89784,-0.15728 -1.32617,-0.142578 z m -57.886719,0.59375 2.371093,6.527344 -0.84375,0.306641 c -1.273267,-1.693788 -2.594459,-2.804423 -3.964843,-3.328125 -1.350336,-0.530985 -2.636194,-0.573086 -3.859376,-0.128907 -1.02266,0.371363 -1.737617,0.937409 -2.142578,1.697266 -0.384908,0.752575 -0.409173,1.589319 -0.07422,2.511719 0.262138,0.721877 0.691255,1.247834 1.287109,1.576172 0.608625,0.301004 1.623344,0.532598 3.044922,0.697265 l 5.21875,0.589844 c 1.137262,0.131734 2.202333,0.597602 3.195312,1.394531 0.99298,0.79693 1.693792,1.755986 2.101563,2.878906 0.684473,1.884903 0.549686,3.66996 -0.404297,5.355469 -0.941213,1.658176 -2.52421,2.890959 -4.75,3.699219 -1.082817,0.393208 -2.228943,0.615648 -3.435547,0.667969 -1.186552,0.04504 -1.879556,0.104918 -2.080078,0.177734 -0.441147,0.160196 -0.618408,0.609583 -0.53125,1.349609 l -0.871094,0.31836 -2.699218,-7.429688 0.873046,-0.316406 c 2.60098,3.912518 5.424729,5.313838 8.472657,4.207031 1.163025,-0.422334 1.973644,-1.068307 2.429687,-1.9375 0.456043,-0.869192 0.493879,-1.824475 0.115234,-2.867187 -0.283983,-0.782034 -0.747384,-1.340002 -1.390624,-1.673828 -0.643243,-0.333827 -1.73989,-0.571861 -3.289063,-0.712891 l -2.363281,-0.230469 c -2.097752,-0.214178 -3.737078,-0.663647 -4.916016,-1.347656 -1.18622,-0.704061 -2.019413,-1.717573 -2.5,-3.041016 -0.691754,-1.904955 -0.65263,-3.610083 0.117188,-5.115234 0.789869,-1.512432 2.206633,-2.640087 4.251953,-3.382812 0.962503,-0.349518 2.026859,-0.542323 3.193359,-0.580078 1.159218,-0.05781 1.808854,-0.113092 1.949219,-0.164063 0.260678,-0.09466 0.435997,-0.236398 0.525391,-0.427734 0.08211,-0.211389 0.104496,-0.525961 0.06641,-0.94336 z m 84.998039,7.464844 6.70508,4.537109 -3.16601,16.095703 13.76562,-8.919921 6.67774,4.519531 -0.44727,0.664062 c -1.01951,-0.587024 -1.78153,-0.833377 -2.28516,-0.736328 -0.48595,0.109008 -1.05153,0.641695 -1.69726,1.595703 l -7.92969,11.712891 c -0.63377,0.936342 -0.91352,1.635617 -0.83984,2.097656 0.0737,0.46204 0.58051,1.100735 1.52148,1.917969 l -0.44726,0.662109 -8.79883,-5.955078 0.44922,-0.662109 c 1.04913,0.581315 1.79796,0.845069 2.24804,0.789062 0.46775,-0.04405 0.95284,-0.437681 1.45508,-1.179687 l 9.13086,-13.488281 -17.60156,11.617187 -0.7168,-0.484375 3.97656,-20.259765 -8.42968,12.455078 c -0.66965,0.989342 -0.94816,1.780549 -0.83399,2.373046 0.12614,0.574833 0.70453,1.26044 1.73438,2.060547 l -0.44727,0.664063 -6.20117,-4.197266 0.44727,-0.664062 c 1.09642,0.587565 1.87023,0.854835 2.32031,0.798828 0.4797,-0.06172 0.98923,-0.490149 1.52734,-1.285156 l 8.51953,-12.587891 c 0.46637,-0.689006 0.63293,-1.258362 0.5,-1.708984 -0.13292,-0.450622 -0.66209,-1.041173 -1.58593,-1.769532 z m -110.638665,3.904297 0.472657,0.644531 c -0.737335,0.726095 -1.128369,1.328848 -1.171875,1.810547 -0.04351,0.481699 0.212366,1.102516 0.767578,1.859375 l 6.039062,8.230469 c 3.356506,4.575556 2.814899,8.490538 -1.623046,11.746093 -1.92655,1.413266 -3.850916,2.125291 -5.775391,2.134766 -1.20767,0.0128 -2.232667,-0.229285 -3.072266,-0.724609 -0.839598,-0.495325 -1.726391,-1.379445 -2.660156,-2.652344 l -6.320313,-8.617187 c -0.681395,-0.928873 -1.252975,-1.437493 -1.71289,-1.523438 -0.455332,-0.115765 -1.169768,0.118401 -2.144531,0.701172 l -0.47461,-0.644531 8.722657,-6.398438 0.472656,0.646485 c -1.006844,0.791509 -1.567376,1.452201 -1.679688,1.984374 -0.107729,0.502354 0.198718,1.244134 0.917969,2.22461 l 6.322266,8.617187 c 1.287081,1.754537 2.527542,2.816777 3.722656,3.183594 1.182495,0.349616 2.437216,0.03803 3.761719,-0.933594 1.530919,-1.123041 2.331463,-2.412923 2.402343,-3.867187 0.07088,-1.454264 -0.595446,-3.135573 -1.996093,-5.044922 l -5.771485,-7.869141 c -0.694014,-0.946073 -1.33419,-1.456793 -1.917969,-1.53125 -0.579194,-0.104276 -1.406404,0.17355 -2.484374,0.832032 l -0.47461,-0.644532 z M 107.74462,75.675818 A 85.039368,85.039368 0 0 1 159.729,96.449256 85.039368,85.039368 0 0 1 168.11767,216.41996 85.039368,85.039368 0 0 1 48.146967,224.81059 85.039368,85.039368 0 0 1 39.758295,104.83988 85.039368,85.039368 0 0 1 107.74462,75.675818 Z m -91.103512,9.011719 6.060547,4.396484 -0.46875,0.648438 c -0.505176,-0.102868 -0.991137,-0.17854 -1.457031,-0.226563 -0.483164,-0.06055 -1.14563,-0.09208 -1.986329,-0.0957 -0.840697,-0.0036 -1.600716,0.06422 -2.28125,0.203125 -0.697801,0.126375 -1.41957,0.393977 -2.164062,0.802735 -0.731966,0.391488 -1.329527,0.90596 -1.792969,1.544922 -1.12729,1.554225 -1.28667,3.2441 -0.476562,5.070312 0.810107,1.826212 2.553746,3.7109 5.230469,5.65234 5.387982,3.90794 9.34176,4.1254 11.859374,0.6543 0.82668,-1.13976 1.302021,-2.37563 1.425782,-3.708984 0.12376,-1.333349 0.02644,-2.852519 -0.291016,-4.558594 l 1.210938,-0.308593 0.144531,0.61914 c 0.07894,0.399856 0.127509,0.660119 0.146484,0.779297 l 0.128907,0.802735 c 0.06641,0.417124 0.100104,0.733959 0.103515,0.947265 0.0034,0.213306 0.01187,0.5475 0.02344,1.003906 -0.0057,0.443883 -0.03844,0.815577 -0.09766,1.115238 -0.04669,0.28238 -0.117804,0.65322 -0.21289,1.11132 -0.112356,0.44559 -0.252969,0.85616 -0.421875,1.23438 -0.139112,0.37347 -0.326223,0.77812 -0.5625,1.21289 -0.236278,0.43477 -0.504077,0.85898 -0.804688,1.27344 -1.941443,2.67672 -4.393276,4.25919 -7.355469,4.74609 -2.949667,0.46963 -5.754609,-0.26053 -8.414062,-2.18945 -2.642184,-1.91639 -4.2246571,-4.36823 -4.7460941,-7.35547 -0.52618,-3.017038 0.143475,-5.811659 2.0097661,-8.384766 0.588696,-0.811651 1.252192,-1.48995 1.990234,-2.035156 0.733299,-0.575 1.379558,-1.03005 1.9375,-1.363281 0.557943,-0.333232 0.931259,-0.629634 1.119141,-0.888672 0.175356,-0.241768 0.238843,-0.510648 0.191406,-0.808594 -0.04744,-0.297946 -0.232896,-0.696959 -0.556641,-1.195312 z m 172.570312,2.445312 c 0.41323,-0.02193 0.82779,0.0034 1.24414,0.07617 1.67825,0.307908 3.17457,1.329763 4.48828,3.064454 0.61821,0.816322 1.11743,1.775603 1.49805,2.878906 0.39762,1.090423 0.64226,1.695406 0.73242,1.814453 0.16743,0.221088 0.35525,0.346109 0.56445,0.375 0.22621,0.01601 0.53435,-0.05517 0.92188,-0.214844 l 0.57812,0.763672 -5.53516,4.19336 -0.54101,-0.714844 c 1.24214,-1.716747 1.91029,-3.307556 2.00586,-4.771485 0.10845,-1.446921 -0.22998,-2.689149 -1.01563,-3.726562 -0.65685,-0.867345 -1.40638,-1.382465 -2.25195,-1.544922 -0.83269,-0.14545 -1.64152,0.07942 -2.42383,0.671875 -0.61224,0.463661 -0.9873,1.029063 -1.125,1.695312 -0.1078,0.670377 -0.0301,1.708444 0.23242,3.115235 l 0.97852,5.160156 c 0.21005,1.125435 0.0814,2.280785 -0.38672,3.464845 -0.46808,1.18407 -1.17848,2.13617 -2.13086,2.85743 -1.59863,1.21067 -3.34424,1.60889 -5.23633,1.19531 -1.86219,-0.40945 -3.50787,-1.55756 -4.9375,-3.44531 -0.69549,-0.91837 -1.24792,-1.94667 -1.65429,-3.08399 -0.3935,-1.120312 -0.65441,-1.765483 -0.78321,-1.935551 -0.28334,-0.374149 -0.766,-0.411223 -1.44726,-0.109375 l -0.5586,-0.738281 6.30079,-4.771484 0.56054,0.738281 c -2.96971,3.64056 -3.47721,6.75482 -1.51953,9.33985 0.74701,0.98639 1.60325,1.56908 2.56836,1.74805 0.96511,0.17896 1.89104,-0.0666 2.77539,-0.73633 0.66327,-0.5023 1.05856,-1.11108 1.1875,-1.82422 0.12894,-0.71314 0.0318,-1.82985 -0.29101,-3.351569 l -0.47852,-2.328125 c -0.41498,-2.06742 -0.46934,-3.765378 -0.16406,-5.09375 0.32228,-1.341251 1.04552,-2.437064 2.16797,-3.287109 1.21173,-0.917663 2.43607,-1.408823 3.67578,-1.47461 z m -5.66211,121.509771 5.63672,4.05469 -0.52344,0.72656 c -2.00641,-0.68151 -3.72323,-0.85149 -5.15039,-0.51172 -1.4147,0.32245 -2.50167,1.01205 -3.26172,2.06836 -0.63545,0.88314 -0.90625,1.75151 -0.8125,2.60742 0.10621,0.8386 0.55695,1.54599 1.35352,2.11914 0.62339,0.44856 1.27391,0.64078 1.95117,0.57617 0.6724,-0.0944 1.64111,-0.47543 2.9082,-1.14062 l 4.64453,-2.45313 c 1.01367,-0.53215 2.15443,-0.74903 3.42383,-0.65039 1.2694,0.0986 2.38965,0.49561 3.35937,1.19336 1.62776,1.17123 2.52165,2.72237 2.6836,4.65235 0.15709,1.90019 -0.45485,3.81223 -1.83789,5.73437 -0.67284,0.93509 -1.49372,1.76305 -2.46094,2.48633 -0.95475,0.70596 -1.49454,1.14715 -1.61914,1.32031 -0.27412,0.38097 -0.16486,0.8519 0.32422,1.41406 l -0.54297,0.75391 -6.41602,-4.61719 0.54297,-0.7539 c 4.35366,1.76595 7.4772,1.33328 9.3711,-1.29883 0.72267,-1.00436 1.02724,-1.99373 0.91406,-2.96875 -0.11318,-0.97502 -0.62102,-1.78568 -1.52149,-2.4336 -0.67534,-0.48593 -1.3723,-0.68639 -2.09179,-0.5996 -0.71949,0.0868 -1.75802,0.50898 -3.11719,1.26562 l -2.08398,1.14258 c -1.85354,1.0054 -3.459,1.5568 -4.81836,1.65625 -1.37669,0.087 -2.63641,-0.28117 -3.7793,-1.10352 -1.64507,-1.18369 -2.57469,-2.61382 -2.78711,-4.29101 -0.19996,-1.69451 0.33456,-3.42512 1.60547,-5.19141 0.59807,-0.83119 1.36825,-1.59065 2.31055,-2.2793 0.92497,-0.7011 1.43231,-1.11316 1.51953,-1.23437 0.16198,-0.22512 0.2254,-0.44196 0.1914,-0.65039 -0.0513,-0.2209 -0.20984,-0.49113 -0.47656,-0.81445 z m -158.275389,4.93554 c 0.337139,0.002 0.680343,0.0433 1.027343,0.125 1.417935,0.33071 2.715311,1.25282 3.892578,2.76954 0.994138,1.28078 1.498022,2.52345 1.513672,3.72656 0.04558,1.20688 -0.395381,2.17118 -1.322265,2.89062 -0.792065,0.6148 -1.718554,0.84613 -2.779297,0.69727 -1.060743,-0.14886 -2.357397,-0.70693 -3.892578,-1.67578 l -2.447266,8.01562 c 1.502438,0.0221 2.611306,-0.0276 3.326172,-0.15039 0.714865,-0.12278 1.324505,-0.38101 1.830078,-0.77344 0.370754,-0.28777 0.543499,-0.57071 0.517578,-0.84765 -0.02592,-0.27694 -0.2841,-0.81809 -0.775391,-1.625 l 0.605469,-0.4707 4.042969,5.20703 -0.607422,0.4707 c -0.469141,-0.50004 -0.861737,-0.81598 -1.179687,-0.94727 -0.288017,-0.12751 -0.709788,-0.16512 -1.263672,-0.11328 l -1.640625,0.18164 c -1.231274,0.11853 -2.977964,0.21679 -5.238282,0.29688 -0.36064,1.41416 -0.544522,2.44857 -0.550781,3.10156 0.01059,0.63991 0.206596,1.20464 0.585938,1.69336 0.444745,0.57298 1.143325,0.81331 2.097656,0.7207 l 0.08984,0.74024 -0.970703,0.10547 c -0.02993,-0.004 -0.154018,0.0114 -0.371094,0.0449 -0.200223,0.0204 -0.362824,0.0379 -0.486328,0.0527 -0.106652,0.002 -0.288739,0.009 -0.548828,0.0215 -0.243238,-2.4e-4 -0.455167,-0.0106 -0.634766,-0.0332 l -0.673828,-0.0859 c -0.252546,-0.047 -0.49464,-0.11504 -0.726563,-0.20508 -0.201989,-0.0863 -0.424784,-0.19716 -0.666015,-0.33399 -0.241232,-0.13682 -0.468712,-0.31171 -0.685547,-0.52148 -0.233688,-0.19669 -0.44832,-0.42104 -0.644531,-0.67383 -0.52323,-0.6741 -0.835207,-1.40554 -0.933594,-2.19336 -0.09839,-0.78781 -0.01961,-1.88643 0.234375,-3.29883 -2.996611,-0.83371 -5.183162,-2.13674 -6.5566411,-3.90625 -1.098783,-1.4156 -1.588159,-2.89823 -1.46875,-4.44921 0.149343,-1.54722 0.874237,-2.82482 2.1718751,-3.83204 1.196524,-0.92873 2.527227,-1.35355 3.992188,-1.27539 1.464961,0.0782 3.32891,0.67119 5.591797,1.77735 0.483904,-1.18578 0.905893,-2.06869 1.267578,-2.64649 0.361685,-0.5778 0.820822,-1.082 1.376953,-1.51367 0.922671,-0.71617 1.888971,-1.07125 2.900391,-1.06641 z m 2.451171,2.21876 c -0.435917,-0.0397 -0.874336,0.11107 -1.3125,0.45117 -0.977442,0.75868 -1.757394,2.36394 -2.339843,4.81445 0.71615,0.47034 1.331114,0.72167 1.84375,0.75586 0.529488,0.0211 1.055699,-0.17067 1.578125,-0.57617 0.842622,-0.65404 1.393111,-1.4582 1.65039,-2.41407 0.287213,-0.95208 0.187113,-1.74169 -0.296875,-2.36523 -0.313938,-0.40446 -0.687129,-0.6263 -1.123047,-0.66601 z m -10.697265,3.4414 c -0.563194,0.005 -1.080866,0.19232 -1.552735,0.5586 -1.078556,0.83716 -1.893517,2.11722 -2.445312,3.84179 -0.521862,1.72834 -0.364512,3.13238 0.472656,4.21094 0.470907,0.60669 1.388347,1.10988 2.751953,1.50977 0.32493,-1.25142 1.047714,-3.55459 2.169922,-6.91016 l 0.878906,-2.62695 c -0.940769,-0.37702 -1.699116,-0.57219 -2.27539,-0.58399 z m 151.791013,8.57031 3.99219,5.04297 -0.62696,0.49805 c -1.64185,-1.42117 -3.08242,-2.09135 -4.32226,-2.00781 -1.25309,0.0668 -2.90067,0.90811 -4.94141,2.52343 -0.65237,0.51638 -1.02041,0.94381 -1.10547,1.28321 -0.0983,0.32267 0.0375,0.71913 0.40821,1.1875 l 4.60742,5.82031 0.0996,-0.0781 c 1.32146,-1.04598 2.05613,-2.06338 2.20117,-3.04882 0.1318,-1.00218 -0.26713,-2.27739 -1.19531,-3.82813 l 0.65234,-0.51758 6.71289,8.48243 -0.65234,0.51562 c -1.30246,-1.33612 -2.4789,-2.0505 -3.53125,-2.14258 -1.03563,-0.10532 -2.23969,0.385 -3.61133,1.47071 l 4.80664,6.07226 c 0.42369,0.53528 0.85558,0.78998 1.29883,0.76563 0.45997,-0.0376 1.09162,-0.37423 1.89453,-1.00977 1.82328,-1.44319 2.92013,-2.90969 3.29102,-4.40039 0.37087,-1.4907 0.31092,-3.25161 -0.18165,-5.2832 l 0.70313,-0.55664 3.12695,6.01367 -14.67773,11.61914 -0.49805,-0.62695 c 0.85729,-0.84183 1.33418,-1.47891 1.42969,-1.90821 0.0955,-0.4293 -0.11449,-0.96872 -0.63086,-1.62109 l -9.61328,-12.14453 c -0.50313,-0.63564 -1.00421,-0.96007 -1.50391,-0.97266 -0.4997,-0.0126 -1.20374,0.30114 -2.11328,0.93945 l -0.49609,-0.6289 z m -112.499998,13.06836 16.839844,7.57422 -2.638672,5.86524 -0.730469,-0.32813 c 0.505446,-2.11185 0.436112,-3.69767 -0.208984,-4.75976 -0.636344,-1.08155 -2.140058,-2.15698 -4.513672,-3.22461 -0.758778,-0.3413 -1.309954,-0.47142 -1.65039,-0.39063 -0.331686,0.0613 -0.620205,0.36344 -0.865235,0.9082 l -3.044922,6.77149 0.117188,0.0527 c 1.537012,0.69134 2.775264,0.87388 3.716797,0.54883 0.950284,-0.34451 1.900505,-1.28619 2.849609,-2.82422 l 0.759766,0.3418 -4.4375,9.86523 -0.757813,-0.34179 c 0.58624,-1.77142 0.676312,-3.14651 0.273438,-4.12305 -0.383419,-0.96779 -1.371418,-1.80976 -2.966797,-2.52734 l -3.177735,7.0625 c -0.280034,0.62258 -0.305814,1.12557 -0.08008,1.50781 0.245193,0.39099 0.833699,0.79674 1.767578,1.2168 2.120689,0.95386 3.927845,1.25177 5.421876,0.89453 1.494029,-0.35725 3.028934,-1.22293 4.605468,-2.59571 l 0.81836,0.36719 -3.898438,5.54492 -17.072266,-7.67773 0.328126,-0.73047 c 1.142032,0.37332 1.926505,0.50353 2.351562,0.39062 0.425057,-0.1129 0.807145,-0.54786 1.148438,-1.30664 l 6.353515,-14.125 c 0.332541,-0.73932 0.388861,-1.33384 0.169922,-1.7832 -0.218939,-0.44936 -0.82119,-0.93189 -1.806641,-1.44531 z m 83.533198,5.31446 0.29883,0.74414 c -1.26297,0.57605 -2.00534,1.1024 -2.22656,1.58203 -0.22917,0.45983 -0.12091,1.24487 0.32422,2.35351 l 5.62695,14.01563 c 0.25436,0.63351 0.59931,1.00303 1.03125,1.10547 0.43194,0.10244 1.103,-0.0308 2.01367,-0.39649 0.57412,-0.23051 1.09155,-0.48381 1.55469,-0.76172 0.48293,-0.28585 0.89979,-0.56794 1.24805,-0.8457 0.34825,-0.27776 0.65686,-0.59618 0.92578,-0.95703 0.28076,-0.38859 0.50766,-0.71108 0.68164,-0.96484 0.19377,-0.26171 0.35614,-0.6014 0.48633,-1.02149 0.12223,-0.43988 0.21993,-0.76645 0.29492,-0.98047 0.067,-0.23381 0.1192,-0.56625 0.15429,-0.99414 l 0.0684,-0.85547 c 0.004,-0.16242 0.005,-0.44933 0,-0.86132 0.0153,-0.41994 0.0254,-0.65363 0.0293,-0.70118 l 0.86133,-0.3457 1.48828,7.23047 -17.16406,6.89062 -0.29883,-0.74218 c 1.03321,-0.57576 1.64622,-1.05114 1.83984,-1.42774 0.21343,-0.38454 0.16924,-0.95474 -0.13281,-1.70703 l -5.76953,-14.37109 c -0.30205,-0.7523 -0.69044,-1.2055 -1.16602,-1.35938 -0.45578,-0.16183 -1.20087,-0.0706 -2.23437,0.27539 l -0.29883,-0.74218 z m -58.347651,4.97656 10.982422,1.41211 -0.101562,0.79297 c -0.597896,-0.0339 -0.928711,-0.0543 -0.992188,-0.0625 -0.574015,-0.0523 -0.98648,-0.0186 -1.238281,0.0996 -0.230642,0.12089 -0.368563,0.34895 -0.412109,0.6875 -0.03811,0.29622 0.06943,0.70884 0.324218,1.23632 l 2.466797,5.15625 c 0.401143,-0.44311 0.887954,-0.96135 1.458985,-1.55468 0.571028,-0.59333 0.980775,-1.02396 1.230468,-1.29297 0.270853,-0.26629 0.546386,-0.57486 0.828125,-0.92578 0.302899,-0.34821 0.512379,-0.63361 0.626953,-0.85547 0.117297,-0.24302 0.190765,-0.48014 0.220704,-0.71289 0.06532,-0.50782 -0.09478,-0.85063 -0.480469,-1.0293 -0.184988,-0.0668 -0.57001,-0.17086 -1.154297,-0.31055 l -0.5,-0.1289 0.103516,-0.79297 7.933589,1.01953 -0.10156,0.79492 c -1.19851,-0.0466 -2.18216,0.15882 -2.95117,0.61914 -0.769011,0.46032 -1.972604,1.54258 -3.611328,3.2461 l -2.992188,3.19726 4.621094,9.72461 c 0.614753,1.24057 1.080328,2.05269 1.396484,2.4375 0.340037,0.36638 0.782664,0.59558 1.330078,0.6875 l -0.10157,0.79297 -10.791008,-1.38672 0.101563,-0.79492 c 0.555577,0.0285 0.854166,0.0453 0.896484,0.0508 1.108434,0.078 1.697583,-0.14681 1.765625,-0.67578 0.05716,-0.44434 -0.09079,-1.04343 -0.445312,-1.79883 l -2.544922,-5.55469 -1.414063,1.46289 c -1.391752,1.45567 -2.331966,2.48563 -2.818359,3.08985 -0.486393,0.60422 -0.751375,1.07747 -0.794922,1.41601 -0.05171,0.40202 0.09057,0.72033 0.425781,0.95704 0.359089,0.21825 1.01881,0.44283 1.978516,0.67382 l -0.101562,0.79297 -7.935547,-1.01953 0.101562,-0.79297 c 0.79377,0.0161 1.441295,-0.0736 1.939453,-0.26758 0.498159,-0.19403 1.02698,-0.55608 1.589844,-1.08593 l 6.457031,-6.30078 -5.095703,-10.04297 c -0.39412,-0.78201 -0.735991,-1.31041 -1.023437,-1.58399 -0.287447,-0.27357 -0.713447,-0.46818 -1.279297,-0.58398 z m 40.218751,0.63867 0.10351,0.79297 c -1.15803,0.1936 -1.92675,0.47726 -2.30859,0.84961 -0.38184,0.37234 -0.51939,0.96987 -0.41211,1.79492 l 1.99609,15.35938 c 0.10728,0.82505 0.38181,1.3596 0.82227,1.60351 0.44046,0.24391 1.26947,0.32999 2.48633,0.25781 l 0.10351,0.79297 -11.10742,1.44336 -0.10352,-0.79297 c 1.17094,-0.25982 1.92725,-0.56251 2.26954,-0.9082 0.36343,-0.34844 0.4932,-0.92462 0.38867,-1.72852 l -1.9961,-15.35742 c -0.10453,-0.8039 -0.38799,-1.3272 -0.84961,-1.56836 -0.44321,-0.26506 -1.24114,-0.36665 -2.39453,-0.30273 l -0.10351,-0.79297 z"
     id="rect5137-8-8" />
  <path
     style="fill:#000000;fill-opacity:1;stroke:none;stroke-width:0.75590551;stroke-miterlimit:4;stroke-dasharray:none;stroke-opacity:1;enable-background:new"
     d="M 0 0 L 0 321.25977 L 207.87305 321.25977 L 207.87305 0 L 0 0 z M 104.76562 45.197266 L 105.32422 51.605469 L 104.39844 51.675781 C 103.97604 49.804037 103.26576 48.499819 102.26758 47.763672 C 101.28903 47.004616 99.819204 46.668867 97.857422 46.755859 L 99.154297 63.570312 C 99.247729 64.782719 99.476885 65.535298 99.841797 65.828125 C 100.22798 66.119313 101.1151 66.26582 102.50586 66.265625 L 102.56836 67.0625 L 91.177734 67.939453 L 91.115234 67.142578 C 92.468336 66.93132 93.303404 66.653874 93.619141 66.308594 C 93.954508 65.940404 94.076168 65.159885 93.984375 63.96875 L 92.689453 47.154297 C 90.716236 47.37055 89.293839 47.930367 88.421875 48.832031 C 87.569542 49.710786 87.077893 51.107121 86.947266 53.021484 L 86.021484 53.091797 L 85.623047 46.671875 L 104.76562 45.197266 z M 126.80078 47.875 C 127.92866 47.834668 129.10225 47.959619 130.32422 48.25 C 133.45828 48.994756 135.8047 50.659566 137.36133 53.244141 C 138.93872 55.833648 139.35032 58.717008 138.5957 61.892578 C 137.83122 65.109659 136.16445 67.509477 133.5957 69.091797 C 131.04771 70.679049 128.16435 71.090656 124.94727 70.326172 C 121.73018 69.561687 119.32749 67.905418 117.74023 65.357422 C 116.17867 62.793602 115.78044 59.902628 116.54492 56.685547 C 117.31434 53.447711 118.98398 51.037398 121.55273 49.455078 C 123.17118 48.469211 124.92098 47.94222 126.80078 47.875 z M 128.72266 49.128906 C 127.43764 49.173013 126.27853 49.772787 125.24805 50.925781 C 123.87407 52.463108 122.78924 54.913022 121.99023 58.275391 C 121.24055 61.430205 121.13441 63.947702 121.67383 65.830078 C 122.234 67.717386 123.40645 68.874663 125.19141 69.298828 C 126.97637 69.722994 128.53276 69.215825 129.86133 67.777344 C 131.21558 66.323039 132.27365 63.997107 133.0332 60.800781 C 133.80262 57.562945 133.92123 54.937621 133.39062 52.925781 C 132.88573 50.898118 131.77152 49.680853 130.04883 49.271484 C 129.59221 49.162977 129.15099 49.114204 128.72266 49.128906 z M 70.835938 49.722656 L 73.207031 56.25 L 72.363281 56.556641 C 71.090014 54.862853 69.768822 53.752218 68.398438 53.228516 C 67.048102 52.697531 65.762244 52.65543 64.539062 53.099609 C 63.516402 53.470972 62.801445 54.037018 62.396484 54.796875 C 62.011576 55.54945 61.987311 56.386194 62.322266 57.308594 C 62.584404 58.030471 63.013521 58.556428 63.609375 58.884766 C 64.218 59.18577 65.232719 59.417364 66.654297 59.582031 L 71.873047 60.171875 C 73.010309 60.303609 74.07538 60.769477 75.068359 61.566406 C 76.061339 62.363336 76.762151 63.322392 77.169922 64.445312 C 77.854395 66.330215 77.719608 68.115272 76.765625 69.800781 C 75.824412 71.458957 74.241415 72.69174 72.015625 73.5 C 70.932808 73.893208 69.786682 74.115648 68.580078 74.167969 C 67.393526 74.213008 66.700522 74.272887 66.5 74.345703 C 66.058853 74.505899 65.881592 74.955286 65.96875 75.695312 L 65.097656 76.013672 L 62.398438 68.583984 L 63.271484 68.267578 C 65.872464 72.180096 68.696213 73.581416 71.744141 72.474609 C 72.907166 72.052275 73.717785 71.406302 74.173828 70.537109 C 74.629871 69.667917 74.667707 68.712634 74.289062 67.669922 C 74.005079 66.887888 73.541678 66.32992 72.898438 65.996094 C 72.255195 65.662267 71.158548 65.424233 69.609375 65.283203 L 67.246094 65.052734 C 65.148342 64.838556 63.509016 64.389087 62.330078 63.705078 C 61.143858 63.001017 60.310665 61.987505 59.830078 60.664062 C 59.138324 58.759107 59.177448 57.053979 59.947266 55.548828 C 60.737135 54.036396 62.153899 52.908741 64.199219 52.166016 C 65.161722 51.816498 66.226078 51.623693 67.392578 51.585938 C 68.551796 51.528128 69.201432 51.472846 69.341797 51.421875 C 69.602475 51.327214 69.777794 51.185477 69.867188 50.994141 C 69.949298 50.782752 69.971684 50.46818 69.933594 50.050781 L 70.835938 49.722656 z M 155.83398 57.1875 L 162.53906 61.724609 L 159.37305 77.820312 L 173.13867 68.900391 L 179.81641 73.419922 L 179.36914 74.083984 C 178.34963 73.49696 177.58761 73.250607 177.08398 73.347656 C 176.59803 73.456664 176.03245 73.989351 175.38672 74.943359 L 167.45703 86.65625 C 166.82326 87.592592 166.54351 88.291867 166.61719 88.753906 C 166.69086 89.215946 167.1977 89.854641 168.13867 90.671875 L 167.69141 91.333984 L 158.89258 85.378906 L 159.3418 84.716797 C 160.39093 85.298112 161.13976 85.561866 161.58984 85.505859 C 162.05759 85.46181 162.54268 85.068178 163.04492 84.326172 L 172.17578 70.837891 L 154.57422 82.455078 L 153.85742 81.970703 L 157.83398 61.710938 L 149.4043 74.166016 C 148.73465 75.155358 148.45614 75.946565 148.57031 76.539062 C 148.69645 77.113895 149.27484 77.799502 150.30469 78.599609 L 149.85742 79.263672 L 143.65625 75.066406 L 144.10352 74.402344 C 145.19994 74.989909 145.97375 75.257179 146.42383 75.201172 C 146.90353 75.139456 147.41306 74.711023 147.95117 73.916016 L 156.4707 61.328125 C 156.93707 60.639119 157.10363 60.069763 156.9707 59.619141 C 156.83778 59.168519 156.30861 58.577968 155.38477 57.849609 L 155.83398 57.1875 z M 45.195312 61.091797 L 45.667969 61.736328 C 44.930634 62.462423 44.5396 63.065176 44.496094 63.546875 C 44.452587 64.028574 44.70846 64.649391 45.263672 65.40625 L 51.302734 73.636719 C 54.65924 78.212275 54.117633 82.127257 49.679688 85.382812 C 47.753138 86.796078 45.828772 87.508103 43.904297 87.517578 C 42.696627 87.530382 41.67163 87.288293 40.832031 86.792969 C 39.992433 86.297644 39.10564 85.413524 38.171875 84.140625 L 31.851562 75.523438 C 31.170167 74.594565 30.598587 74.085945 30.138672 74 C 29.68334 73.884235 28.968904 74.118401 27.994141 74.701172 L 27.519531 74.056641 L 36.242188 67.658203 L 36.714844 68.304688 C 35.708 69.096197 35.147468 69.756889 35.035156 70.289062 C 34.927427 70.791416 35.233874 71.533196 35.953125 72.513672 L 42.275391 81.130859 C 43.562472 82.885396 44.802933 83.947636 45.998047 84.314453 C 47.180542 84.664069 48.435263 84.352479 49.759766 83.380859 C 51.290685 82.257818 52.091229 80.967936 52.162109 79.513672 C 52.23299 78.059408 51.566663 76.378099 50.166016 74.46875 L 44.394531 66.599609 C 43.700517 65.653536 43.060341 65.142816 42.476562 65.068359 C 41.897368 64.964083 41.070158 65.241909 39.992188 65.900391 L 39.517578 65.255859 L 45.195312 61.091797 z M 107.74414 75.675781 A 85.039368 85.039368 0 0 1 159.72852 96.449219 A 85.039368 85.039368 0 0 1 168.11719 216.41992 A 85.039368 85.039368 0 0 1 48.146484 224.81055 A 85.039368 85.039368 0 0 1 39.757812 104.83984 A 85.039368 85.039368 0 0 1 107.74414 75.675781 z M 16.640625 84.6875 L 22.701172 89.083984 L 22.232422 89.732422 C 21.727246 89.629554 21.241285 89.553882 20.775391 89.505859 C 20.292227 89.445311 19.629761 89.413779 18.789062 89.410156 C 17.948365 89.406533 17.188346 89.474381 16.507812 89.613281 C 15.810011 89.739656 15.088242 90.007258 14.34375 90.416016 C 13.611784 90.807504 13.014223 91.321976 12.550781 91.960938 C 11.423491 93.515163 11.264111 95.205038 12.074219 97.03125 C 12.884326 98.857462 14.627965 100.74215 17.304688 102.68359 C 22.69267 106.59153 26.646448 106.80899 29.164062 103.33789 C 29.990742 102.19813 30.466083 100.96226 30.589844 99.628906 C 30.713604 98.295557 30.616285 96.776387 30.298828 95.070312 L 31.509766 94.761719 L 31.654297 95.380859 C 31.733235 95.780715 31.781806 96.040978 31.800781 96.160156 L 31.929688 96.962891 C 31.996099 97.380015 32.029792 97.69685 32.033203 97.910156 C 32.036615 98.123462 32.045074 98.457656 32.056641 98.914062 C 32.050938 99.357945 32.0182 99.729639 31.958984 100.0293 C 31.912294 100.31168 31.84118 100.68252 31.746094 101.14062 C 31.633738 101.58621 31.493125 101.99678 31.324219 102.375 C 31.185107 102.74847 30.997996 103.15312 30.761719 103.58789 C 30.525441 104.02266 30.257642 104.44687 29.957031 104.86133 C 28.015588 107.53805 25.563755 109.12052 22.601562 109.60742 C 19.651895 110.07705 16.846953 109.34689 14.1875 107.41797 C 11.545316 105.50158 9.9628434 103.04974 9.4414062 100.0625 C 8.9152258 97.045462 9.5848806 94.250841 11.451172 91.677734 C 12.039868 90.866083 12.703364 90.187784 13.441406 89.642578 C 14.174705 89.067578 14.820964 88.612528 15.378906 88.279297 C 15.936849 87.946065 16.310165 87.649663 16.498047 87.390625 C 16.673403 87.148857 16.73689 86.879977 16.689453 86.582031 C 16.642016 86.284085 16.456557 85.885072 16.132812 85.386719 L 16.640625 84.6875 z M 189.21094 87.132812 C 189.62417 87.110884 190.03873 87.136259 190.45508 87.208984 C 192.13333 87.516892 193.62965 88.538747 194.94336 90.273438 C 195.56157 91.08976 196.06079 92.049041 196.44141 93.152344 C 196.83903 94.242767 197.08367 94.84775 197.17383 94.966797 C 197.34126 95.187885 197.52908 95.312906 197.73828 95.341797 C 197.96449 95.357808 198.27263 95.286629 198.66016 95.126953 L 199.23828 95.890625 L 193.70312 100.08398 L 193.16211 99.369141 C 194.40425 97.652394 195.0724 96.061585 195.16797 94.597656 C 195.27642 93.150735 194.93799 91.908507 194.15234 90.871094 C 193.49549 90.003749 192.74596 89.488629 191.90039 89.326172 C 191.0677 89.180722 190.25887 89.405591 189.47656 89.998047 C 188.86432 90.461708 188.48926 91.02711 188.35156 91.693359 C 188.24376 92.363736 188.32142 93.401803 188.58398 94.808594 L 189.5625 99.96875 C 189.77255 101.09418 189.64386 102.24953 189.17578 103.43359 C 188.7077 104.61766 187.9973 105.56976 187.04492 106.29102 C 185.44629 107.50169 183.70068 107.89991 181.80859 107.48633 C 179.9464 107.07688 178.30072 105.92877 176.87109 104.04102 C 176.1756 103.12265 175.62317 102.09435 175.2168 100.95703 C 174.8233 99.836723 174.56239 99.191552 174.43359 99.021484 C 174.15025 98.647335 173.66759 98.610261 172.98633 98.912109 L 172.42773 98.173828 L 178.72852 93.402344 L 179.28906 94.140625 C 176.31935 97.781185 175.81185 100.89544 177.76953 103.48047 C 178.51654 104.46686 179.37278 105.04955 180.33789 105.22852 C 181.303 105.40748 182.22893 105.16192 183.11328 104.49219 C 183.77655 103.98989 184.17184 103.38111 184.30078 102.66797 C 184.42972 101.95483 184.3326 100.83812 184.00977 99.316406 L 183.53125 96.988281 C 183.11627 94.920861 183.06191 93.222903 183.36719 91.894531 C 183.68947 90.55328 184.41271 89.457467 185.53516 88.607422 C 186.74689 87.689759 187.97123 87.198599 189.21094 87.132812 z M 183.54883 208.64258 L 189.18555 212.69727 L 188.66211 213.42383 C 186.6557 212.74232 184.93888 212.57234 183.51172 212.91211 C 182.09702 213.23456 181.01005 213.92416 180.25 214.98047 C 179.61455 215.86361 179.34375 216.73198 179.4375 217.58789 C 179.54371 218.42649 179.99445 219.13388 180.79102 219.70703 C 181.41441 220.15559 182.06493 220.34781 182.74219 220.2832 C 183.41459 220.18882 184.3833 219.80777 185.65039 219.14258 L 190.29492 216.68945 C 191.30859 216.1573 192.44935 215.94042 193.71875 216.03906 C 194.98815 216.1377 196.1084 216.53467 197.07812 217.23242 C 198.70588 218.40365 199.59977 219.95479 199.76172 221.88477 C 199.91881 223.78496 199.30687 225.697 197.92383 227.61914 C 197.25099 228.55423 196.43011 229.38219 195.46289 230.10547 C 194.50814 230.81143 193.96835 231.25262 193.84375 231.42578 C 193.56963 231.80675 193.67889 232.27768 194.16797 232.83984 L 193.625 233.59375 L 187.20898 228.97656 L 187.75195 228.22266 C 192.10561 229.98861 195.22915 229.55594 197.12305 226.92383 C 197.84572 225.91947 198.15029 224.9301 198.03711 223.95508 C 197.92393 222.98006 197.41609 222.1694 196.51562 221.52148 C 195.84028 221.03555 195.14332 220.83509 194.42383 220.92188 C 193.70434 221.00866 192.66581 221.43086 191.30664 222.1875 L 189.22266 223.33008 C 187.36912 224.33548 185.76366 224.88688 184.4043 224.98633 C 183.02761 225.07331 181.76789 224.70516 180.625 223.88281 C 178.97993 222.69912 178.05031 221.26899 177.83789 219.5918 C 177.63793 217.89729 178.17245 216.16668 179.44336 214.40039 C 180.04143 213.5692 180.81161 212.80974 181.75391 212.12109 C 182.67888 211.41999 183.18622 211.00793 183.27344 210.88672 C 183.43542 210.6616 183.49884 210.44476 183.46484 210.23633 C 183.41353 210.01543 183.255 209.7452 182.98828 209.42188 L 183.54883 208.64258 z M 25.273438 213.57812 C 25.610577 213.57974 25.953781 213.6214 26.300781 213.70312 C 27.718716 214.03383 29.016092 214.95594 30.193359 216.47266 C 31.187497 217.75344 31.691381 218.99611 31.707031 220.19922 C 31.752615 221.4061 31.31165 222.3704 30.384766 223.08984 C 29.592701 223.70464 28.666212 223.93597 27.605469 223.78711 C 26.544726 223.63825 25.248072 223.08018 23.712891 222.11133 L 21.265625 230.12695 C 22.768063 230.14902 23.876931 230.09935 24.591797 229.97656 C 25.306662 229.85378 25.916302 229.59555 26.421875 229.20312 C 26.792629 228.91535 26.965374 228.63241 26.939453 228.35547 C 26.913532 228.07853 26.655353 227.53738 26.164062 226.73047 L 26.769531 226.25977 L 30.8125 231.4668 L 30.205078 231.9375 C 29.735937 231.43746 29.343341 231.12152 29.025391 230.99023 C 28.737374 230.86272 28.315603 230.82511 27.761719 230.87695 L 26.121094 231.05859 C 24.88982 231.17712 23.14313 231.27538 20.882812 231.35547 C 20.522172 232.76963 20.33829 233.80404 20.332031 234.45703 C 20.342625 235.09694 20.538627 235.66167 20.917969 236.15039 C 21.362714 236.72337 22.061294 236.9637 23.015625 236.87109 L 23.105469 237.61133 L 22.134766 237.7168 C 22.104832 237.71303 21.980748 237.72825 21.763672 237.76172 C 21.563449 237.7821 21.400848 237.79961 21.277344 237.81445 C 21.170692 237.81622 20.988605 237.8231 20.728516 237.83594 C 20.485278 237.8357 20.273349 237.82536 20.09375 237.80273 L 19.419922 237.7168 C 19.167376 237.66977 18.925282 237.60176 18.693359 237.51172 C 18.49137 237.42545 18.268575 237.31456 18.027344 237.17773 C 17.786112 237.04091 17.558632 236.86602 17.341797 236.65625 C 17.108109 236.45956 16.893477 236.23521 16.697266 235.98242 C 16.174036 235.30832 15.862059 234.57688 15.763672 233.78906 C 15.665284 233.00125 15.744058 231.90263 15.998047 230.49023 C 13.001436 229.65652 10.814885 228.35349 9.4414062 226.58398 C 8.3426231 225.16838 7.8532469 223.68575 7.9726562 222.13477 C 8.1219989 220.58755 8.8468929 219.30995 10.144531 218.30273 C 11.341055 217.374 12.671758 216.94918 14.136719 217.02734 C 15.60168 217.1055 17.465629 217.69853 19.728516 218.80469 C 20.21242 217.61891 20.634409 216.736 20.996094 216.1582 C 21.357779 215.5804 21.816916 215.0762 22.373047 214.64453 C 23.295718 213.92836 24.262018 213.57328 25.273438 213.57812 z M 27.724609 215.79688 C 27.288692 215.75715 26.850273 215.90795 26.412109 216.24805 C 25.434667 217.00673 24.654715 218.61199 24.072266 221.0625 C 24.788416 221.53284 25.40338 221.78417 25.916016 221.81836 C 26.445504 221.83946 26.971715 221.64769 27.494141 221.24219 C 28.336763 220.58815 28.887252 219.78399 29.144531 218.82812 C 29.431744 217.87604 29.331644 217.08643 28.847656 216.46289 C 28.533718 216.05843 28.160527 215.83659 27.724609 215.79688 z M 17.027344 219.23828 C 16.46415 219.24334 15.946478 219.4306 15.474609 219.79688 C 14.396053 220.63404 13.581092 221.9141 13.029297 223.63867 C 12.507435 225.36701 12.664785 226.77105 13.501953 227.84961 C 13.97286 228.4563 14.8903 228.95949 16.253906 229.35938 C 16.578836 228.10796 17.30162 225.80479 18.423828 222.44922 L 19.302734 219.82227 C 18.361965 219.44525 17.603618 219.25008 17.027344 219.23828 z M 168.81836 227.80859 L 172.81055 232.85156 L 172.18359 233.34961 C 170.54174 231.92844 169.10117 231.25826 167.86133 231.3418 C 166.60824 231.4086 164.96066 232.24991 162.91992 233.86523 C 162.26755 234.38161 161.89951 234.80904 161.81445 235.14844 C 161.71616 235.47111 161.85193 235.86757 162.22266 236.33594 L 166.83008 242.15625 L 166.92969 242.07812 C 168.25115 241.03214 168.98582 240.01474 169.13086 239.0293 C 169.26266 238.02712 168.86373 236.75191 167.93555 235.20117 L 168.58789 234.68359 L 175.30078 243.16602 L 174.64844 243.68164 C 173.34598 242.34552 172.16954 241.63114 171.11719 241.53906 C 170.08156 241.43374 168.8775 241.92406 167.50586 243.00977 L 172.3125 249.08203 C 172.73619 249.61731 173.16808 249.87201 173.61133 249.84766 C 174.0713 249.81006 174.70295 249.47343 175.50586 248.83789 C 177.32914 247.3947 178.42599 245.9282 178.79688 244.4375 C 179.16775 242.9468 179.1078 241.18589 178.61523 239.1543 L 179.31836 238.59766 L 182.44531 244.61133 L 167.76758 256.23047 L 167.26953 255.60352 C 168.12682 254.76169 168.60371 254.12461 168.69922 253.69531 C 168.79473 253.26601 168.58473 252.72659 168.06836 252.07422 L 158.45508 239.92969 C 157.95195 239.29405 157.45087 238.96962 156.95117 238.95703 C 156.45147 238.94445 155.74743 239.25817 154.83789 239.89648 L 154.3418 239.26758 L 168.81836 227.80859 z M 56.318359 240.87695 L 73.158203 248.45117 L 70.519531 254.31641 L 69.789062 253.98828 C 70.294508 251.87643 70.225174 250.29061 69.580078 249.22852 C 68.943734 248.14697 67.44002 247.07154 65.066406 246.00391 C 64.307628 245.66261 63.756452 245.53249 63.416016 245.61328 C 63.08433 245.67462 62.795811 245.97672 62.550781 246.52148 L 59.505859 253.29297 L 59.623047 253.3457 C 61.160059 254.03704 62.398311 254.21958 63.339844 253.89453 C 64.290128 253.55002 65.240349 252.60834 66.189453 251.07031 L 66.949219 251.41211 L 62.511719 261.27734 L 61.753906 260.93555 C 62.340146 259.16413 62.430218 257.78904 62.027344 256.8125 C 61.643925 255.84471 60.655926 255.00274 59.060547 254.28516 L 55.882812 261.34766 C 55.602778 261.97024 55.576998 262.47323 55.802734 262.85547 C 56.047927 263.24646 56.636433 263.65221 57.570312 264.07227 C 59.691001 265.02613 61.498157 265.32404 62.992188 264.9668 C 64.486217 264.60955 66.021122 263.74387 67.597656 262.37109 L 68.416016 262.73828 L 64.517578 268.2832 L 47.445312 260.60547 L 47.773438 259.875 C 48.91547 260.24832 49.699943 260.37853 50.125 260.26562 C 50.550057 260.15272 50.932145 259.71776 51.273438 258.95898 L 57.626953 244.83398 C 57.959494 244.09466 58.015814 243.50014 57.796875 243.05078 C 57.577936 242.60142 56.975685 242.11889 55.990234 241.60547 L 56.318359 240.87695 z M 139.85156 246.19141 L 140.15039 246.93555 C 138.88742 247.5116 138.14505 248.03795 137.92383 248.51758 C 137.69466 248.97741 137.80292 249.76245 138.24805 250.87109 L 143.875 264.88672 C 144.12936 265.52023 144.47431 265.88975 144.90625 265.99219 C 145.33819 266.09463 146.00925 265.96134 146.91992 265.5957 C 147.49404 265.36519 148.01147 265.11189 148.47461 264.83398 C 148.95754 264.54813 149.3744 264.26604 149.72266 263.98828 C 150.07091 263.71052 150.37952 263.3921 150.64844 263.03125 C 150.9292 262.64266 151.1561 262.32017 151.33008 262.06641 C 151.52385 261.8047 151.68622 261.46501 151.81641 261.04492 C 151.93864 260.60504 152.03634 260.27847 152.11133 260.06445 C 152.17837 259.83064 152.23053 259.4982 152.26562 259.07031 L 152.33398 258.21484 C 152.33774 258.05242 152.33848 257.76551 152.33398 257.35352 C 152.34929 256.93358 152.35938 256.69989 152.36328 256.65234 L 153.22461 256.30664 L 154.71289 263.53711 L 137.54883 270.42773 L 137.25 269.68555 C 138.28321 269.10979 138.89622 268.63441 139.08984 268.25781 C 139.30327 267.87327 139.25908 267.30307 138.95703 266.55078 L 133.1875 252.17969 C 132.88545 251.42739 132.49706 250.97419 132.02148 250.82031 C 131.5657 250.65848 130.82061 250.74971 129.78711 251.0957 L 129.48828 250.35352 L 139.85156 246.19141 z M 81.503906 251.16797 L 92.486328 252.58008 L 92.384766 253.37305 C 91.78687 253.33916 91.456055 253.31871 91.392578 253.31055 C 90.818563 253.25822 90.406098 253.29198 90.154297 253.41016 C 89.923655 253.53105 89.785734 253.75911 89.742188 254.09766 C 89.704083 254.39388 89.81162 254.8065 90.066406 255.33398 L 92.533203 260.49023 C 92.934346 260.04712 93.421157 259.52888 93.992188 258.93555 C 94.563216 258.34222 94.972963 257.91159 95.222656 257.64258 C 95.493509 257.37629 95.769042 257.06772 96.050781 256.7168 C 96.35368 256.36859 96.56316 256.08319 96.677734 255.86133 C 96.795031 255.61831 96.868499 255.38119 96.898438 255.14844 C 96.963757 254.64062 96.80366 254.29781 96.417969 254.11914 C 96.232981 254.05233 95.847959 253.94828 95.263672 253.80859 L 94.763672 253.67969 L 94.867188 252.88672 L 102.80078 253.90625 L 102.69922 254.70117 C 101.50071 254.65455 100.51706 254.85999 99.748047 255.32031 C 98.979036 255.78063 97.775443 256.86289 96.136719 258.56641 L 93.144531 261.76367 L 97.765625 271.48828 C 98.380378 272.72885 98.845953 273.54097 99.162109 273.92578 C 99.502146 274.29216 99.944773 274.52136 100.49219 274.61328 L 100.39062 275.40625 L 89.599609 274.01953 L 89.701172 273.22461 C 90.256749 273.25306 90.555338 273.26995 90.597656 273.27539 C 91.70609 273.35344 92.295239 273.12858 92.363281 272.59961 C 92.420437 272.15527 92.272492 271.55618 91.917969 270.80078 L 89.373047 265.24609 L 87.958984 266.70898 C 86.567232 268.16465 85.627018 269.19461 85.140625 269.79883 C 84.654232 270.40305 84.38925 270.8763 84.345703 271.21484 C 84.293991 271.61686 84.436276 271.93517 84.771484 272.17188 C 85.130573 272.39013 85.790294 272.61471 86.75 272.8457 L 86.648438 273.63867 L 78.712891 272.61914 L 78.814453 271.82617 C 79.608223 271.84224 80.255748 271.75262 80.753906 271.55859 C 81.252065 271.36456 81.780886 271.00251 82.34375 270.47266 L 88.800781 264.17188 L 83.705078 254.12891 C 83.310958 253.3469 82.969087 252.8185 82.681641 252.54492 C 82.394194 252.27135 81.968194 252.07674 81.402344 251.96094 L 81.503906 251.16797 z M 121.72266 251.80664 L 121.82617 252.59961 C 120.66814 252.79321 119.89942 253.07687 119.51758 253.44922 C 119.13574 253.82156 118.99819 254.41909 119.10547 255.24414 L 121.10156 270.60352 C 121.20884 271.42857 121.48337 271.96312 121.92383 272.20703 C 122.36429 272.45094 123.1933 272.53702 124.41016 272.46484 L 124.51367 273.25781 L 113.40625 274.70117 L 113.30273 273.9082 C 114.47367 273.64838 115.22998 273.34569 115.57227 273 C 115.9357 272.65156 116.06547 272.07538 115.96094 271.27148 L 113.96484 255.91406 C 113.86031 255.11016 113.57685 254.58686 113.11523 254.3457 C 112.67202 254.08064 111.87409 253.97905 110.7207 254.04297 L 110.61719 253.25 L 121.72266 251.80664 z "
     id="rect5137-8" />
</svg>
